<mxfile host="Electron" modified="2023-05-27T21:09:29.791Z" agent="Mozilla/5.0 (Macintosh; Intel Mac OS X 10_15_7) AppleWebKit/537.36 (KHTML, like Gecko) draw.io/21.2.8 Chrome/112.0.5615.165 Electron/24.2.0 Safari/537.36" etag="MOqvkILuWx7yUzbp2lKU" version="21.2.8" type="device">
  <diagram name="Page-1" id="orJDA2Bt-eCY_NEsBVHn">
    <mxGraphModel dx="1026" dy="772" grid="1" gridSize="10" guides="1" tooltips="1" connect="1" arrows="1" fold="1" page="1" pageScale="1" pageWidth="3300" pageHeight="4681" math="0" shadow="0">
      <root>
        <mxCell id="0" />
        <mxCell id="1" parent="0" />
        <mxCell id="-YWmWI64YCZtGt5qzUmd-14" style="edgeStyle=orthogonalEdgeStyle;rounded=0;orthogonalLoop=1;jettySize=auto;html=1;exitX=0.13;exitY=0.77;exitDx=0;exitDy=0;exitPerimeter=0;entryX=1;entryY=0.75;entryDx=0;entryDy=0;curved=1;" edge="1" parent="1" source="-YWmWI64YCZtGt5qzUmd-1" target="-YWmWI64YCZtGt5qzUmd-2">
          <mxGeometry relative="1" as="geometry">
            <Array as="points">
              <mxPoint x="656" y="170" />
              <mxPoint x="480" y="170" />
              <mxPoint x="480" y="135" />
            </Array>
          </mxGeometry>
        </mxCell>
        <mxCell id="-YWmWI64YCZtGt5qzUmd-1" value="Docker &lt;br&gt;Hub" style="ellipse;shape=cloud;whiteSpace=wrap;html=1;" vertex="1" parent="1">
          <mxGeometry x="640" y="80" width="120" height="80" as="geometry" />
        </mxCell>
        <mxCell id="-YWmWI64YCZtGt5qzUmd-16" style="edgeStyle=orthogonalEdgeStyle;rounded=0;orthogonalLoop=1;jettySize=auto;html=1;exitX=1;exitY=0.25;exitDx=0;exitDy=0;entryX=0.07;entryY=0.4;entryDx=0;entryDy=0;entryPerimeter=0;curved=1;" edge="1" parent="1" source="-YWmWI64YCZtGt5qzUmd-2" target="-YWmWI64YCZtGt5qzUmd-1">
          <mxGeometry relative="1" as="geometry">
            <Array as="points">
              <mxPoint x="460" y="90" />
              <mxPoint x="610" y="90" />
              <mxPoint x="610" y="112" />
            </Array>
          </mxGeometry>
        </mxCell>
        <mxCell id="-YWmWI64YCZtGt5qzUmd-18" style="edgeStyle=orthogonalEdgeStyle;rounded=0;orthogonalLoop=1;jettySize=auto;html=1;exitX=0;exitY=0.75;exitDx=0;exitDy=0;" edge="1" parent="1" source="-YWmWI64YCZtGt5qzUmd-2">
          <mxGeometry relative="1" as="geometry">
            <mxPoint x="180" y="150" as="targetPoint" />
          </mxGeometry>
        </mxCell>
        <mxCell id="-YWmWI64YCZtGt5qzUmd-2" value="Anacostia Client&lt;br&gt;(python library installed by user)" style="rounded=1;whiteSpace=wrap;html=1;" vertex="1" parent="1">
          <mxGeometry x="340" y="90" width="120" height="60" as="geometry" />
        </mxCell>
        <mxCell id="-YWmWI64YCZtGt5qzUmd-3" value="User" style="shape=umlActor;verticalLabelPosition=bottom;verticalAlign=top;html=1;outlineConnect=0;labelPosition=center;align=center;" vertex="1" parent="1">
          <mxGeometry x="130" y="90" width="30" height="60" as="geometry" />
        </mxCell>
        <mxCell id="-YWmWI64YCZtGt5qzUmd-7" value="" style="endArrow=classic;html=1;rounded=0;entryX=0;entryY=0.5;entryDx=0;entryDy=0;" edge="1" parent="1" target="-YWmWI64YCZtGt5qzUmd-2">
          <mxGeometry width="50" height="50" relative="1" as="geometry">
            <mxPoint x="180" y="119.5" as="sourcePoint" />
            <mxPoint x="250" y="119.5" as="targetPoint" />
          </mxGeometry>
        </mxCell>
        <mxCell id="-YWmWI64YCZtGt5qzUmd-8" value="Pipeline Config (tools, parameters, schedule)&lt;br&gt;Marked Code" style="text;html=1;strokeColor=none;fillColor=none;align=center;verticalAlign=middle;whiteSpace=wrap;rounded=0;" vertex="1" parent="1">
          <mxGeometry x="180" y="70" width="150" height="50" as="geometry" />
        </mxCell>
        <mxCell id="-YWmWI64YCZtGt5qzUmd-12" value="Pipeline Config (tools)" style="text;html=1;strokeColor=none;fillColor=none;align=center;verticalAlign=middle;whiteSpace=wrap;rounded=0;" vertex="1" parent="1">
          <mxGeometry x="490" y="60" width="140" height="20" as="geometry" />
        </mxCell>
        <mxCell id="-YWmWI64YCZtGt5qzUmd-17" value="Pull all images required by Pipeline Config (tools)" style="text;html=1;strokeColor=none;fillColor=none;align=center;verticalAlign=middle;whiteSpace=wrap;rounded=0;" vertex="1" parent="1">
          <mxGeometry x="500" y="170" width="120" height="60" as="geometry" />
        </mxCell>
      </root>
    </mxGraphModel>
  </diagram>
</mxfile>
